<svg width="18" height="18" viewBox="0 0 18 18" fill="none" xmlns="http://www.w3.org/2000/svg">
<path d="M16.998 9C16.998 13.4172 13.4172 16.998 9.00001 16.998M16.998 9C16.998 4.58283 13.4172 1.002 9.00001 1.002M16.998 9H1.00201M9.00001 16.998C4.58284 16.998 1.00201 13.4172 1.00201 9M9.00001 16.998C10.7944 16.998 12.249 13.4172 12.249 9C12.249 4.58283 10.7944 1.002 9.00001 1.002M9.00001 16.998C7.20564 16.998 5.75101 13.4172 5.75101 9C5.75101 4.58283 7.20564 1.002 9.00001 1.002M1.00201 9C1.00201 4.58283 4.58284 1.002 9.00001 1.002" stroke="black" stroke-width="1.5" stroke-miterlimit="10" stroke-linecap="round" stroke-linejoin="round"/>
</svg>
