<svg width="34" height="34" viewBox="0 0 34 34" fill="none" xmlns="http://www.w3.org/2000/svg">
<path d="M20.9783 1.54164C27.32 1.54164 32.46 6.68164 32.46 13.0233M20.9783 7.44164C24.06 7.44164 26.56 9.93997 26.56 13.0233M13.01 20.9416C14.51 22.38 16.2683 23.55 18.2117 24.38L19.0767 24.7483L21.735 22.0483C22.395 21.3783 23.35 21.0883 24.2717 21.2816L30.7117 22.63C31.8017 22.8616 32.58 23.8233 32.58 24.9366V29.5733C32.58 31.2316 31.2367 32.575 29.5783 32.575H28.1533C21.5967 32.575 15.1267 30.4033 10.2333 26.04C9.83001 25.6816 9.43835 25.31 9.05668 24.93L9.11835 24.9916C8.73668 24.61 8.36668 24.2183 8.00835 23.815C3.64335 18.9233 1.47168 12.4533 1.47168 5.89664V4.47164C1.47168 2.8133 2.81501 1.46997 4.47335 1.46997H9.11001C10.2233 1.46997 11.185 2.2483 11.4167 3.3383L12.7667 9.7783C12.9583 10.6983 12.67 11.655 12 12.315L9.30001 14.9733L9.66835 15.8383C10.4983 17.78 11.57 19.4416 13.01 20.9416Z" stroke="white" stroke-width="1.5" stroke-miterlimit="10" stroke-linecap="round" stroke-linejoin="round"/>
</svg>
