<svg width="18" height="18" viewBox="0 0 18 18" fill="none" xmlns="http://www.w3.org/2000/svg">
<path d="M10.9892 1.27083C14.16 1.27083 16.73 3.84083 16.73 7.01167M10.9892 4.22083C12.53 4.22083 13.78 5.47 13.78 7.01167M7.00501 10.9708C7.75501 11.69 8.63417 12.275 9.60584 12.69L10.0383 12.8742L11.3675 11.5242C11.6975 11.1892 12.175 11.0442 12.6358 11.1408L15.8558 11.815C16.4008 11.9308 16.79 12.4117 16.79 12.9683V15.2867C16.79 16.1158 16.1183 16.7875 15.2892 16.7875H14.5767C11.2983 16.7875 8.06334 15.7017 5.61667 13.52C5.41501 13.3408 5.21917 13.155 5.02834 12.965L5.05917 12.9958C4.86834 12.805 4.68334 12.6092 4.50417 12.4075C2.32167 9.96167 1.23584 6.72667 1.23584 3.44833V2.73583C1.23584 1.90667 1.90751 1.235 2.73667 1.235H5.05501C5.61167 1.235 6.09251 1.62417 6.20834 2.16917L6.88334 5.38917C6.97917 5.84917 6.83501 6.3275 6.50001 6.6575L5.15001 7.98667L5.33417 8.41917C5.74917 9.39 6.28501 10.2208 7.00501 10.9708Z" stroke="#EB1616" stroke-width="1.5" stroke-miterlimit="10" stroke-linecap="round" stroke-linejoin="round"/>
</svg>
